{
	"asset":{
		"generator":"Khronos glTF Blender I/O v4.5.48",
		"version":"2.0"
	},
	"scene":0,
	"scenes":[
		{
			"name":"Scene",
			"nodes":[
				0
			]
		}
	],
	"nodes":[
		{
			"mesh":0,
			"name":"Cupola_Int_Glass_Collision_Static",
			"translation":[
				-1.0785164704429917e-05,
				98.04398345947266,
				-18.288021087646484
			]
		}
	],
	"meshes":[
		{
			"name":"Untitled.001",
			"primitives":[
				{
					"attributes":{
						"POSITION":0,
						"NORMAL":1
					},
					"indices":2
				}
			]
		}
	],
	"accessors":[
		{
			"bufferView":0,
			"componentType":5126,
			"count":578,
			"max":[
				7.4955973625183105,
				6.96036434173584,
				-7.917307376861572
			],
			"min":[
				-7.4955973625183105,
				-6.960376739501953,
				-12.787388801574707
			],
			"type":"VEC3"
		},
		{
			"bufferView":1,
			"componentType":5126,
			"count":578,
			"type":"VEC3"
		},
		{
			"bufferView":2,
			"componentType":5123,
			"count":1656,
			"type":"SCALAR"
		}
	],
	"bufferViews":[
		{
			"buffer":0,
			"byteLength":6936,
			"byteOffset":0,
			"target":34962
		},
		{
			"buffer":0,
			"byteLength":6936,
			"byteOffset":6936,
			"target":34962
		},
		{
			"buffer":0,
			"byteLength":3312,
			"byteOffset":13872,
			"target":34963
		}
	],
	"buffers":[
		{
			"byteLength":17184,
			"uri":"collision-window.bin"
		}
	]
}
