{
  "asset": {
    "generator": "Khronos glTF Blender I/O v3.5.30",
    "version": "2.0",
    "extras": {
      "source": "https://dl.polyhaven.org/file/ph-assets/Models/gltf/1k/pine_sapling_small/pine_sapling_small_1k.gltf",
      "license": "CC0-1.0",
      "extraction": "Only pine_sapling_small_b; presentation X translation removed; geometry/material bytes unchanged"
    }
  },
  "extensionsUsed": [
    "KHR_materials_specular",
    "KHR_materials_ior"
  ],
  "scene": 0,
  "scenes": [
    {
      "name": "pine_sapling_small_variant_01",
      "nodes": [
        0
      ]
    }
  ],
  "nodes": [
    {
      "mesh": 0,
      "name": "pine_sapling_small_b"
    }
  ],
  "materials": [
    {
      "doubleSided": true,
      "extensions": {
        "KHR_materials_specular": {
          "specularColorFactor": [
            0.0474271512287485,
            0.0474271512287485,
            0.0474271512287485
          ]
        },
        "KHR_materials_ior": {
          "ior": 1.4500000476837158
        }
      },
      "name": "pine_sapling_small_bark",
      "normalTexture": {
        "index": 0
      },
      "pbrMetallicRoughness": {
        "baseColorTexture": {
          "index": 1
        },
        "metallicFactor": 0,
        "metallicRoughnessTexture": {
          "index": 2
        }
      }
    },
    {
      "alphaCutoff": 0.5,
      "alphaMode": "MASK",
      "doubleSided": true,
      "extensions": {
        "KHR_materials_specular": {
          "specularColorFactor": [
            0.02371357561437425,
            0.02371357561437425,
            0.02371357561437425
          ]
        },
        "KHR_materials_ior": {
          "ior": 1.4500000476837158
        }
      },
      "name": "pine_sapling_small_twig",
      "normalTexture": {
        "index": 3
      },
      "pbrMetallicRoughness": {
        "baseColorTexture": {
          "index": 4
        },
        "metallicFactor": 0,
        "metallicRoughnessTexture": {
          "index": 5
        }
      }
    }
  ],
  "meshes": [
    {
      "name": "pine_sapling_small_b",
      "primitives": [
        {
          "attributes": {
            "POSITION": 1,
            "TEXCOORD_0": 2,
            "NORMAL": 3
          },
          "indices": 0,
          "material": 0
        },
        {
          "attributes": {
            "POSITION": 5,
            "TEXCOORD_0": 6,
            "NORMAL": 7
          },
          "indices": 4,
          "material": 1
        }
      ]
    }
  ],
  "textures": [
    {
      "sampler": 0,
      "source": 0
    },
    {
      "sampler": 0,
      "source": 1
    },
    {
      "sampler": 0,
      "source": 2
    },
    {
      "sampler": 0,
      "source": 3
    },
    {
      "sampler": 0,
      "source": 4
    },
    {
      "sampler": 0,
      "source": 5
    }
  ],
  "images": [
    {
      "mimeType": "image/jpeg",
      "name": "pine_sapling_small_bark_nor_gl",
      "uri": "textures/pine_sapling_small_bark_nor_gl_1k.jpg"
    },
    {
      "mimeType": "image/jpeg",
      "name": "pine_sapling_small_bark_diff",
      "uri": "textures/pine_sapling_small_bark_diff_1k.jpg"
    },
    {
      "mimeType": "image/jpeg",
      "name": "pine_sapling_small_bark_rough",
      "uri": "textures/pine_sapling_small_bark_arm_1k.jpg"
    },
    {
      "mimeType": "image/jpeg",
      "name": "pine_sapling_small_twig_nor_gl",
      "uri": "textures/pine_sapling_small_twig_nor_gl_1k.jpg"
    },
    {
      "mimeType": "image/jpeg",
      "name": "pine_sapling_small_twig_diff",
      "uri": "textures/pine_sapling_small_twig_diff_1k.jpg"
    },
    {
      "mimeType": "image/jpeg",
      "name": "pine_sapling_small_twig_rough",
      "uri": "textures/pine_sapling_small_twig_arm_1k.jpg"
    }
  ],
  "accessors": [
    {
      "bufferView": 0,
      "componentType": 5123,
      "count": 1458,
      "type": "SCALAR"
    },
    {
      "bufferView": 1,
      "componentType": 5126,
      "count": 315,
      "max": [
        0.19264821708202362,
        0.9629227519035339,
        0.2705112397670746
      ],
      "min": [
        -0.08108803629875183,
        0.0009154988802038133,
        -0.27830466628074646
      ],
      "type": "VEC3"
    },
    {
      "bufferView": 2,
      "componentType": 5126,
      "count": 315,
      "type": "VEC2"
    },
    {
      "bufferView": 3,
      "componentType": 5126,
      "count": 315,
      "type": "VEC3"
    },
    {
      "bufferView": 4,
      "componentType": 5125,
      "count": 365247,
      "type": "SCALAR"
    },
    {
      "bufferView": 5,
      "componentType": 5126,
      "count": 124481,
      "max": [
        0.26351654529571533,
        1.0465238094329834,
        0.39897364377975464
      ],
      "min": [
        -0.2652446925640106,
        0.19504235684871674,
        -0.3313728868961334
      ],
      "type": "VEC3"
    },
    {
      "bufferView": 6,
      "componentType": 5126,
      "count": 124481,
      "type": "VEC2"
    },
    {
      "bufferView": 7,
      "componentType": 5126,
      "count": 124481,
      "type": "VEC3"
    }
  ],
  "bufferViews": [
    {
      "buffer": 0,
      "byteLength": 2916,
      "byteOffset": 0,
      "target": 34963
    },
    {
      "buffer": 0,
      "byteLength": 3780,
      "byteOffset": 2916,
      "target": 34962
    },
    {
      "buffer": 0,
      "byteLength": 2520,
      "byteOffset": 6696,
      "target": 34962
    },
    {
      "buffer": 0,
      "byteLength": 3780,
      "byteOffset": 9216,
      "target": 34962
    },
    {
      "buffer": 0,
      "byteLength": 1460988,
      "byteOffset": 12996,
      "target": 34963
    },
    {
      "buffer": 0,
      "byteLength": 1493772,
      "byteOffset": 1473984,
      "target": 34962
    },
    {
      "buffer": 0,
      "byteLength": 995848,
      "byteOffset": 2967756,
      "target": 34962
    },
    {
      "buffer": 0,
      "byteLength": 1493772,
      "byteOffset": 3963604,
      "target": 34962
    }
  ],
  "samplers": [
    {
      "magFilter": 9729,
      "minFilter": 9987
    }
  ],
  "buffers": [
    {
      "byteLength": 5457376,
      "uri": "pine_sapling_small_variant_01.bin"
    }
  ]
}
